<svg width="17" height="8" viewBox="0 0 17 8" fill="none" xmlns="http://www.w3.org/2000/svg">
<rect width="17" height="6" rx="2" fill="#F87060"/>
<path d="M2.19897 5H1.07682V1.36364H2.24869C2.60144 1.36364 2.90328 1.43643 3.15423 1.58203C3.40518 1.72644 3.59753 1.93419 3.73129 2.20526C3.86505 2.47514 3.93193 2.7983 3.93193 3.17472C3.93193 3.5535 3.86446 3.87962 3.72951 4.15305C3.59457 4.42531 3.39808 4.63482 3.14003 4.78161C2.88198 4.9272 2.56829 5 2.19897 5ZM1.51716 4.60938H2.17057C2.47123 4.60938 2.7204 4.55137 2.91808 4.43537C3.11576 4.31937 3.26313 4.15424 3.3602 3.93999C3.45726 3.72573 3.50579 3.47064 3.50579 3.17472C3.50579 2.88116 3.45785 2.62843 3.36197 2.41655C3.26609 2.20348 3.12286 2.04013 2.93228 1.92649C2.74171 1.81167 2.50437 1.75426 2.22028 1.75426H1.51716V4.60938ZM5.75721 5.05682C5.49443 5.05682 5.26775 4.99882 5.07717 4.88281C4.88778 4.76562 4.74159 4.60227 4.63861 4.39276C4.53681 4.18205 4.48591 3.93703 4.48591 3.65767C4.48591 3.37831 4.53681 3.1321 4.63861 2.91903C4.74159 2.70478 4.88482 2.53788 5.06829 2.41832C5.25295 2.29759 5.46839 2.23722 5.7146 2.23722C5.85665 2.23722 5.99692 2.26089 6.13541 2.30824C6.2739 2.35559 6.39997 2.43253 6.51361 2.53906C6.62724 2.64441 6.7178 2.78409 6.78527 2.9581C6.85274 3.1321 6.88647 3.34635 6.88647 3.60085V3.77841H4.7842V3.41619H6.46034C6.46034 3.26231 6.42956 3.125 6.36801 3.00426C6.30764 2.88352 6.22123 2.78823 6.10878 2.71839C5.99751 2.64856 5.86611 2.61364 5.7146 2.61364C5.5477 2.61364 5.40328 2.65507 5.28136 2.73793C5.16062 2.8196 5.0677 2.92614 5.0026 3.05753C4.93749 3.18892 4.90494 3.32978 4.90494 3.48011V3.72159C4.90494 3.92756 4.94045 4.10215 5.01147 4.24538C5.08368 4.38743 5.1837 4.49574 5.31155 4.57031C5.43939 4.6437 5.58794 4.6804 5.75721 4.6804C5.8673 4.6804 5.96673 4.66501 6.05551 4.63423C6.14547 4.60227 6.223 4.55492 6.28811 4.49219C6.35321 4.42827 6.40352 4.34896 6.43903 4.25426L6.84386 4.3679C6.80125 4.50521 6.72963 4.62595 6.62902 4.73011C6.5284 4.8331 6.40411 4.91359 6.25615 4.97159C6.10818 5.02841 5.94187 5.05682 5.75721 5.05682ZM7.94294 1.36364V5H7.5239V1.36364H7.94294ZM9.85389 5.05682C9.59111 5.05682 9.36443 4.99882 9.17385 4.88281C8.98446 4.76562 8.83827 4.60227 8.73528 4.39276C8.63349 4.18205 8.58259 3.93703 8.58259 3.65767C8.58259 3.37831 8.63349 3.1321 8.73528 2.91903C8.83827 2.70478 8.9815 2.53788 9.16497 2.41832C9.34963 2.29759 9.56507 2.23722 9.81128 2.23722C9.95332 2.23722 10.0936 2.26089 10.2321 2.30824C10.3706 2.35559 10.4966 2.43253 10.6103 2.53906C10.7239 2.64441 10.8145 2.78409 10.8819 2.9581C10.9494 3.1321 10.9832 3.34635 10.9832 3.60085V3.77841H8.88088V3.41619H10.557C10.557 3.26231 10.5262 3.125 10.4647 3.00426C10.4043 2.88352 10.3179 2.78823 10.2055 2.71839C10.0942 2.64856 9.96279 2.61364 9.81128 2.61364C9.64438 2.61364 9.49996 2.65507 9.37804 2.73793C9.2573 2.8196 9.16438 2.92614 9.09928 3.05753C9.03417 3.18892 9.00162 3.32978 9.00162 3.48011V3.72159C9.00162 3.92756 9.03713 4.10215 9.10815 4.24538C9.18036 4.38743 9.28038 4.49574 9.40823 4.57031C9.53607 4.6437 9.68462 4.6804 9.85389 4.6804C9.96398 4.6804 10.0634 4.66501 10.1522 4.63423C10.2422 4.60227 10.3197 4.55492 10.3848 4.49219C10.4499 4.42827 10.5002 4.34896 10.5357 4.25426L10.9405 4.3679C10.8979 4.50521 10.8263 4.62595 10.7257 4.73011C10.6251 4.8331 10.5008 4.91359 10.3528 4.97159C10.2049 5.02841 10.0386 5.05682 9.85389 5.05682ZM12.8067 2.27273V2.62784H11.3933V2.27273H12.8067ZM11.8052 1.61932H12.2243V4.21875C12.2243 4.33712 12.2414 4.4259 12.2758 4.48509C12.3113 4.54309 12.3563 4.58215 12.4107 4.60227C12.4663 4.62121 12.5249 4.63068 12.5865 4.63068C12.6327 4.63068 12.6705 4.62831 12.7001 4.62358C12.7297 4.61766 12.7534 4.61293 12.7712 4.60938L12.8564 4.9858C12.828 4.99645 12.7883 5.0071 12.7374 5.01776C12.6865 5.02959 12.622 5.03551 12.5439 5.03551C12.4255 5.03551 12.3095 5.01006 12.1959 4.95916C12.0834 4.90826 11.9899 4.83073 11.9153 4.72656C11.8419 4.6224 11.8052 4.491 11.8052 4.33239V1.61932ZM14.5512 5.05682C14.2884 5.05682 14.0617 4.99882 13.8711 4.88281C13.6817 4.76562 13.5355 4.60227 13.4326 4.39276C13.3308 4.18205 13.2799 3.93703 13.2799 3.65767C13.2799 3.37831 13.3308 3.1321 13.4326 2.91903C13.5355 2.70478 13.6788 2.53788 13.8622 2.41832C14.0469 2.29759 14.2623 2.23722 14.5085 2.23722C14.6506 2.23722 14.7909 2.26089 14.9294 2.30824C15.0678 2.35559 15.1939 2.43253 15.3076 2.53906C15.4212 2.64441 15.5117 2.78409 15.5792 2.9581C15.6467 3.1321 15.6804 3.34635 15.6804 3.60085V3.77841H13.5781V3.41619H15.2543C15.2543 3.26231 15.2235 3.125 15.162 3.00426C15.1016 2.88352 15.0152 2.78823 14.9027 2.71839C14.7915 2.64856 14.6601 2.61364 14.5085 2.61364C14.3416 2.61364 14.1972 2.65507 14.0753 2.73793C13.9546 2.8196 13.8616 2.92614 13.7965 3.05753C13.7314 3.18892 13.6989 3.32978 13.6989 3.48011V3.72159C13.6989 3.92756 13.7344 4.10215 13.8054 4.24538C13.8776 4.38743 13.9777 4.49574 14.1055 4.57031C14.2333 4.6437 14.3819 4.6804 14.5512 4.6804C14.6612 4.6804 14.7607 4.66501 14.8495 4.63423C14.9394 4.60227 15.0169 4.55492 15.0821 4.49219C15.1472 4.42827 15.1975 4.34896 15.233 4.25426L15.6378 4.3679C15.5952 4.50521 15.5236 4.62595 15.423 4.73011C15.3223 4.8331 15.1981 4.91359 15.0501 4.97159C14.9021 5.02841 14.7358 5.05682 14.5512 5.05682Z" fill="white"/>
<path d="M8 8L6.26795 5.75L9.73205 5.75L8 8Z" fill="#F87060"/>
</svg>
