<svg width="11" height="8" viewBox="0 0 11 8" fill="none" xmlns="http://www.w3.org/2000/svg">
<rect width="11" height="6" rx="2" fill="#F87060"/>
<path d="M1.39631 5V1.72727H3.37145V2.07884H1.79261V3.18466H3.26918V3.53622H1.79261V4.64844H3.39702V5H1.39631ZM4.96147 5.05114C4.75692 5.05114 4.57635 4.99947 4.41974 4.89613C4.26314 4.79173 4.14063 4.64471 4.0522 4.45508C3.96378 4.26438 3.91957 4.03906 3.91957 3.77912C3.91957 3.52131 3.96378 3.29759 4.0522 3.10795C4.14063 2.91832 4.26367 2.77184 4.42134 2.6685C4.57901 2.56516 4.76119 2.51349 4.96786 2.51349C5.12766 2.51349 5.25391 2.54013 5.34659 2.59339C5.44034 2.6456 5.51172 2.70526 5.56072 2.77237C5.6108 2.83842 5.64968 2.89276 5.67738 2.93537H5.70934V1.72727H6.08647V5H5.72212V4.62287H5.67738C5.64968 4.66761 5.61026 4.72408 5.55913 4.79226C5.50799 4.85937 5.43501 4.91957 5.3402 4.97283C5.24538 5.02504 5.11914 5.05114 4.96147 5.05114ZM5.01261 4.71236C5.16389 4.71236 5.29173 4.67294 5.39613 4.59411C5.50053 4.5142 5.5799 4.40394 5.63423 4.26332C5.68857 4.12163 5.71573 3.9581 5.71573 3.77273C5.71573 3.58949 5.6891 3.42915 5.63583 3.29173C5.58256 3.15323 5.50373 3.04563 5.39933 2.96893C5.29492 2.89116 5.16602 2.85227 5.01261 2.85227C4.85281 2.85227 4.71964 2.89329 4.6131 2.97532C4.50763 3.05629 4.42827 3.16655 4.375 3.30611C4.3228 3.4446 4.2967 3.60014 4.2967 3.77273C4.2967 3.94744 4.32333 4.10618 4.3766 4.24893C4.43093 4.39062 4.51083 4.50355 4.6163 4.58771C4.72283 4.67081 4.85494 4.71236 5.01261 4.71236ZM6.82955 5V2.54545H7.20668V5H6.82955ZM7.02131 2.13636C6.9478 2.13636 6.88441 2.11133 6.83114 2.06126C6.77894 2.01119 6.75284 1.95099 6.75284 1.88068C6.75284 1.81037 6.77894 1.75018 6.83114 1.70011C6.88441 1.65004 6.9478 1.625 7.02131 1.625C7.09482 1.625 7.15767 1.65004 7.20987 1.70011C7.26314 1.75018 7.28977 1.81037 7.28977 1.88068C7.28977 1.95099 7.26314 2.01119 7.20987 2.06126C7.15767 2.11133 7.09482 2.13636 7.02131 2.13636ZM8.96489 2.54545V2.86506H7.69287V2.54545H8.96489ZM8.06361 1.95739H8.44074V4.29688C8.44074 4.40341 8.45619 4.48331 8.48708 4.53658C8.51904 4.58878 8.55953 4.62393 8.60853 4.64205C8.6586 4.65909 8.71134 4.66761 8.76673 4.66761C8.80828 4.66761 8.84237 4.66548 8.86901 4.66122C8.89564 4.65589 8.91695 4.65163 8.93293 4.64844L9.00963 4.98722C8.98406 4.9968 8.94838 5.00639 8.90257 5.01598C8.85676 5.02663 8.7987 5.03196 8.72838 5.03196C8.62185 5.03196 8.51744 5.00906 8.41517 4.96325C8.31396 4.91744 8.2298 4.84766 8.16269 4.75391C8.09664 4.66016 8.06361 4.5419 8.06361 4.39915V1.95739Z" fill="white"/>
<path d="M5 8L3.26795 5.75L6.73205 5.75L5 8Z" fill="#F87060"/>
</svg>
