<svg width="15" height="9" viewBox="0 0 15 9" fill="none" xmlns="http://www.w3.org/2000/svg">
<rect width="15" height="7" rx="2" fill="#F87060"/>
<path d="M1.44034 5V1.36364H3.63494V1.75426H1.88068V2.98295H3.52131V3.37358H1.88068V4.60938H3.66335V5H1.44034ZM4.3718 5V2.27273H4.77663V2.69886H4.81214C4.86896 2.55327 4.9607 2.44022 5.08736 2.35973C5.21402 2.27805 5.36612 2.23722 5.54368 2.23722C5.7236 2.23722 5.87334 2.27805 5.9929 2.35973C6.11364 2.44022 6.20774 2.55327 6.27521 2.69886H6.30362C6.37346 2.558 6.47822 2.44614 6.6179 2.36328C6.75758 2.27924 6.92507 2.23722 7.12038 2.23722C7.36423 2.23722 7.56368 2.31357 7.71875 2.46626C7.87382 2.61778 7.95135 2.85393 7.95135 3.17472V5H7.53232V3.17472C7.53232 2.97348 7.47727 2.82966 7.36719 2.74325C7.2571 2.65684 7.12749 2.61364 6.97834 2.61364C6.78658 2.61364 6.63802 2.67164 6.53267 2.78764C6.42732 2.90246 6.37464 3.04806 6.37464 3.22443V5H5.94851V3.1321C5.94851 2.97704 5.8982 2.85215 5.79759 2.75746C5.69697 2.66158 5.56735 2.61364 5.40874 2.61364C5.29983 2.61364 5.19804 2.64264 5.10334 2.70064C5.00982 2.75864 4.93407 2.83913 4.87607 2.94212C4.81925 3.04392 4.79084 3.1617 4.79084 3.29545V5H4.3718ZM9.52006 5.06392C9.34724 5.06392 9.1904 5.03137 9.04954 4.96626C8.90868 4.89998 8.79682 4.80469 8.71396 4.6804C8.6311 4.55492 8.58967 4.40341 8.58967 4.22585C8.58967 4.0696 8.62044 3.94295 8.682 3.84588C8.74355 3.74763 8.82582 3.67069 8.9288 3.61506C9.03178 3.55942 9.14542 3.51799 9.26971 3.49077C9.39518 3.46236 9.52125 3.43987 9.6479 3.4233C9.81362 3.40199 9.94798 3.38601 10.051 3.37536C10.1551 3.36352 10.2309 3.34399 10.2782 3.31676C10.3268 3.28954 10.351 3.24219 10.351 3.17472V3.16051C10.351 2.98532 10.3031 2.8492 10.2072 2.75213C10.1125 2.65507 9.96869 2.60653 9.77575 2.60653C9.5757 2.60653 9.41886 2.65033 9.30522 2.73793C9.19158 2.82552 9.11168 2.91903 9.06552 3.01847L8.66779 2.87642C8.73881 2.7107 8.83351 2.58168 8.95188 2.48935C9.07144 2.39583 9.20165 2.33073 9.34251 2.29403C9.48455 2.25616 9.62423 2.23722 9.76154 2.23722C9.84914 2.23722 9.94975 2.24787 10.0634 2.26918C10.1782 2.2893 10.2889 2.33132 10.3954 2.39524C10.5031 2.45916 10.5925 2.55563 10.6635 2.68466C10.7346 2.81368 10.7701 2.98651 10.7701 3.20312V5H10.351V4.63068H10.3297C10.3013 4.68987 10.254 4.7532 10.1877 4.82067C10.1214 4.88814 10.0332 4.94555 9.92312 4.9929C9.81303 5.04025 9.67868 5.06392 9.52006 5.06392ZM9.58398 4.6875C9.7497 4.6875 9.88938 4.65495 10.003 4.58984C10.1178 4.52474 10.2042 4.4407 10.2623 4.33771C10.3214 4.23473 10.351 4.12642 10.351 4.01278V3.62926C10.3333 3.65057 10.2942 3.6701 10.2338 3.68786C10.1747 3.70443 10.106 3.71922 10.0279 3.73224C9.95094 3.74408 9.87577 3.75473 9.80238 3.7642C9.73017 3.77249 9.67158 3.77959 9.6266 3.78551C9.5177 3.79972 9.4159 3.8228 9.3212 3.85476C9.22769 3.88554 9.15193 3.93229 9.09393 3.99503C9.03711 4.05658 9.0087 4.14062 9.0087 4.24716C9.0087 4.39276 9.06256 4.50284 9.17028 4.57741C9.27918 4.6508 9.41708 4.6875 9.58398 4.6875ZM11.5349 5V2.27273H11.9539V5H11.5349ZM11.748 1.81818C11.6663 1.81818 11.5959 1.79036 11.5367 1.73473C11.4787 1.6791 11.4497 1.61222 11.4497 1.53409C11.4497 1.45597 11.4787 1.38909 11.5367 1.33345C11.5959 1.27782 11.6663 1.25 11.748 1.25C11.8296 1.25 11.8995 1.27782 11.9575 1.33345C12.0167 1.38909 12.0463 1.45597 12.0463 1.53409C12.0463 1.61222 12.0167 1.6791 11.9575 1.73473C11.8995 1.79036 11.8296 1.81818 11.748 1.81818ZM13.1404 1.36364V5H12.7214V1.36364H13.1404Z" fill="white"/>
<path d="M7 9L5.26795 6.75L8.73205 6.75L7 9Z" fill="#F87060"/>
</svg>
