<svg width="18" height="8" viewBox="0 0 18 8" fill="none" xmlns="http://www.w3.org/2000/svg">
<rect width="13" height="6" rx="2" fill="#F87060"/>
<path d="M1.44034 5V1.36364H2.66903C2.95431 1.36364 3.1875 1.41513 3.36861 1.51811C3.5509 1.61991 3.68584 1.75781 3.77344 1.93182C3.86103 2.10582 3.90483 2.29995 3.90483 2.5142C3.90483 2.72846 3.86103 2.92318 3.77344 3.09837C3.68703 3.27356 3.55327 3.41323 3.37216 3.5174C3.19105 3.62038 2.95904 3.67188 2.67614 3.67188H1.79545V3.28125H2.66193C2.85724 3.28125 3.01409 3.24751 3.13246 3.18004C3.25083 3.11257 3.33665 3.02143 3.38991 2.90661C3.44437 2.7906 3.47159 2.6598 3.47159 2.5142C3.47159 2.36861 3.44437 2.2384 3.38991 2.12358C3.33665 2.00876 3.25024 1.9188 3.13068 1.85369C3.01113 1.78741 2.85251 1.75426 2.65483 1.75426H1.88068V5H1.44034ZM4.55735 5V2.27273H4.96218V2.68466H4.99059C5.04031 2.54972 5.13027 2.44022 5.26048 2.35618C5.39068 2.27214 5.53746 2.23011 5.70082 2.23011C5.73159 2.23011 5.77006 2.23071 5.81623 2.23189C5.86239 2.23307 5.89731 2.23485 5.92099 2.23722V2.66335C5.90678 2.6598 5.87423 2.65447 5.82333 2.64737C5.77362 2.63909 5.72094 2.63494 5.66531 2.63494C5.53273 2.63494 5.41436 2.66276 5.31019 2.71839C5.20721 2.77285 5.12553 2.8486 5.06516 2.94567C5.00598 3.04155 4.97638 3.15104 4.97638 3.27415V5H4.55735ZM6.4177 5V2.27273H6.83674V5H6.4177ZM6.63077 1.81818C6.54909 1.81818 6.47866 1.79036 6.41948 1.73473C6.36148 1.6791 6.33248 1.61222 6.33248 1.53409C6.33248 1.45597 6.36148 1.38909 6.41948 1.33345C6.47866 1.27782 6.54909 1.25 6.63077 1.25C6.71245 1.25 6.78229 1.27782 6.84029 1.33345C6.89947 1.38909 6.92907 1.45597 6.92907 1.53409C6.92907 1.61222 6.89947 1.6791 6.84029 1.73473C6.78229 1.79036 6.71245 1.81818 6.63077 1.81818ZM8.02326 3.35938V5H7.60423V2.27273H8.00906V2.69886H8.04457C8.10849 2.56037 8.20555 2.4491 8.33576 2.36506C8.46597 2.27983 8.63406 2.23722 8.84002 2.23722C9.02468 2.23722 9.18626 2.27509 9.32475 2.35085C9.46325 2.42543 9.57096 2.53906 9.6479 2.69176C9.72485 2.84328 9.76332 3.03504 9.76332 3.26705V5H9.34428V3.29545C9.34428 3.0812 9.28865 2.9143 9.17738 2.79474C9.06611 2.67401 8.91341 2.61364 8.71928 2.61364C8.58552 2.61364 8.46597 2.64264 8.36062 2.70064C8.25645 2.75864 8.17418 2.84328 8.11381 2.95455C8.05344 3.06581 8.02326 3.20076 8.02326 3.35938ZM11.7151 2.27273V2.62784H10.3018V2.27273H11.7151ZM10.7137 1.61932H11.1327V4.21875C11.1327 4.33712 11.1499 4.4259 11.1842 4.48509C11.2197 4.54309 11.2647 4.58215 11.3192 4.60227C11.3748 4.62121 11.4334 4.63068 11.4949 4.63068C11.5411 4.63068 11.579 4.62831 11.6086 4.62358C11.6382 4.61766 11.6618 4.61293 11.6796 4.60938L11.7648 4.9858C11.7364 4.99645 11.6968 5.0071 11.6459 5.01776C11.595 5.02959 11.5305 5.03551 11.4523 5.03551C11.334 5.03551 11.218 5.01006 11.1043 4.95916C10.9919 4.90826 10.8983 4.83073 10.8238 4.72656C10.7504 4.6224 10.7137 4.491 10.7137 4.33239V1.61932Z" fill="white"/>
<path d="M7 8L5.26795 5.75L8.73205 5.75L7 8Z" fill="#F87060"/>
</svg>
