<svg width="8" height="8" viewBox="0 0 8 8" fill="none" xmlns="http://www.w3.org/2000/svg">
<path d="M5.71755 5.03145H5.3562L5.22813 4.90795C5.69188 4.37005 5.94676 3.68334 5.94626 2.97313C5.94626 2.3851 5.77188 1.81028 5.44519 1.32135C5.1185 0.832419 4.65416 0.451346 4.11089 0.226317C3.56763 0.00128821 2.96983 -0.0575896 2.3931 0.0571291C1.81637 0.171848 1.28661 0.455011 0.87081 0.87081C0.455011 1.28661 0.171848 1.81637 0.0571291 2.3931C-0.0575896 2.96983 0.00128821 3.56763 0.226317 4.11089C0.451346 4.65416 0.832419 5.1185 1.32135 5.44519C1.81028 5.77188 2.3851 5.94626 2.97313 5.94626C3.70955 5.94626 4.38651 5.67639 4.90795 5.22813L5.03145 5.3562V5.71755L7.31847 8L8 7.31847L5.71755 5.03145ZM2.97313 5.03145C1.83419 5.03145 0.91481 4.11206 0.91481 2.97313C0.91481 1.83419 1.83419 0.91481 2.97313 0.91481C4.11206 0.91481 5.03145 1.83419 5.03145 2.97313C5.03145 4.11206 4.11206 5.03145 2.97313 5.03145Z" fill="#FF5845"/>
</svg>
