<svg width="18" height="16" viewBox="0 0 18 16" fill="none" xmlns="http://www.w3.org/2000/svg">
<path d="M11.0003 11.5V13.25C11.0003 13.7141 10.8247 14.1592 10.5121 14.4874C10.1996 14.8156 9.77562 15 9.33358 15H2.66672C2.22468 15 1.80074 14.8156 1.48817 14.4874C1.1756 14.1592 1 13.7141 1 13.25V2.75C1 2.28587 1.1756 1.84075 1.48817 1.51256C1.80074 1.18437 2.22468 1 2.66672 1H9.00024C9.92068 1 11.0003 1.78356 11.0003 2.75V4.5" stroke="white" stroke-width="1.5" stroke-linecap="round" stroke-linejoin="round"/>
<path d="M13.6665 11.5L16.9999 8L13.6665 4.5" stroke="white" stroke-width="1.5" stroke-linecap="round" stroke-linejoin="round"/>
<path d="M5.66626 8H16.3332" stroke="white" stroke-width="1.5" stroke-linecap="round" stroke-linejoin="round"/>
</svg>
