<svg width="12" height="8" viewBox="0 0 12 8" fill="none" xmlns="http://www.w3.org/2000/svg">
<rect width="12" height="6" rx="2" fill="#F87060"/>
<path d="M1.53054 1.72727L2.50213 4.48224H2.54048L3.51207 1.72727H3.92756L2.72585 5H2.31676L1.11506 1.72727H1.53054ZM4.38619 5V2.54545H4.76332V5H4.38619ZM4.57795 2.13636C4.50444 2.13636 4.44105 2.11133 4.38778 2.06126C4.33558 2.01119 4.30948 1.95099 4.30948 1.88068C4.30948 1.81037 4.33558 1.75018 4.38778 1.70011C4.44105 1.65004 4.50444 1.625 4.57795 1.625C4.65146 1.625 4.71431 1.65004 4.76651 1.70011C4.81978 1.75018 4.84641 1.81037 4.84641 1.88068C4.84641 1.95099 4.81978 2.01119 4.76651 2.06126C4.71431 2.11133 4.65146 2.13636 4.57795 2.13636ZM6.48318 5.05114C6.24667 5.05114 6.04266 4.99893 5.87114 4.89453C5.70068 4.78906 5.56911 4.64205 5.47643 4.45348C5.38481 4.26385 5.339 4.04332 5.339 3.7919C5.339 3.54048 5.38481 3.31889 5.47643 3.12713C5.56911 2.9343 5.69802 2.78409 5.86315 2.67649C6.02934 2.56783 6.22323 2.51349 6.44482 2.51349C6.57267 2.51349 6.69891 2.5348 6.82355 2.57741C6.9482 2.62003 7.06166 2.68928 7.16393 2.78516C7.2662 2.87997 7.3477 3.00568 7.40843 3.16229C7.46915 3.31889 7.49951 3.51172 7.49951 3.74077V3.90057H5.60747V3.57457H7.11599C7.11599 3.43608 7.08829 3.3125 7.03289 3.20384C6.97856 3.09517 6.90079 3.00941 6.79958 2.94656C6.69944 2.8837 6.58119 2.85227 6.44482 2.85227C6.29461 2.85227 6.16464 2.88956 6.05491 2.96413C5.94624 3.03764 5.86262 3.13352 5.80402 3.25178C5.74543 3.37003 5.71613 3.4968 5.71613 3.6321V3.84943C5.71613 4.0348 5.74809 4.19194 5.81201 4.32085C5.877 4.44869 5.96702 4.54616 6.08208 4.61328C6.19713 4.67933 6.33083 4.71236 6.48318 4.71236C6.58225 4.71236 6.67174 4.69851 6.75164 4.67081C6.83261 4.64205 6.90239 4.59943 6.96098 4.54297C7.01958 4.48544 7.06485 4.41406 7.09681 4.32884L7.46116 4.43111C7.42281 4.55469 7.35835 4.66335 7.2678 4.7571C7.17725 4.84979 7.06539 4.92223 6.93222 4.97443C6.79905 5.02557 6.64937 5.05114 6.48318 5.05114ZM8.62931 5L7.88144 2.54545H8.27774L8.80828 4.42472H8.83385L9.358 2.54545H9.7607L10.2785 4.41832H10.304L10.8346 2.54545H11.2309L10.483 5H10.1123L9.57533 3.11435H9.53698L9.00004 5H8.62931Z" fill="white"/>
<path d="M6 8L4.26795 5.75L7.73205 5.75L6 8Z" fill="#F87060"/>
</svg>
