<svg width="17" height="16" viewBox="0 0 17 16" fill="none" xmlns="http://www.w3.org/2000/svg">
<path opacity="0.3" d="M4.23959 12.0509V12.6642H4.85293L10.8929 6.62423L10.2796 6.01089L4.23959 12.0509Z" fill="#FDD5D0"/>
<path d="M14.7129 4.69089C14.9729 4.43089 14.9729 4.01089 14.7129 3.75089L13.1529 2.19089C13.0196 2.05756 12.8529 1.99756 12.6796 1.99756C12.5063 1.99756 12.3396 2.06423 12.2129 2.19089L10.9929 3.41089L13.4929 5.91089L14.7129 4.69089V4.69089ZM2.90625 11.4976V13.9976H5.40625L12.7796 6.62423L10.2796 4.12423L2.90625 11.4976ZM4.85292 12.6642H4.23958V12.0509L10.2796 6.01089L10.8929 6.62423L4.85292 12.6642Z" fill="#F87060"/>
</svg>
