<svg width="15" height="10" viewBox="0 0 15 10" fill="none" xmlns="http://www.w3.org/2000/svg">
<path d="M14.8285 4.68598C11.6396 -1.56134 4.17292 -1.56134 0.968472 4.68598C0.968472 4.68598 0.90625 4.81464 0.90625 5.04338C0.90625 5.21493 0.968472 5.315 0.968472 5.315C4.17292 11.5623 11.6396 11.5623 14.8285 5.315C14.8285 5.315 14.8907 5.17204 14.9063 5.00049C14.9063 4.82894 14.8285 4.68598 14.8285 4.68598ZM7.90625 8.50299C5.75958 8.50299 4.01736 6.90185 4.01736 4.92901C4.01736 2.95617 5.75958 1.35503 7.90625 1.35503C10.0529 1.35503 11.7951 2.95617 11.7951 4.92901C11.7951 6.90185 10.0529 8.50299 7.90625 8.50299Z" fill="#F87060"/>
<path d="M7.90624 2.91455C6.61513 2.91455 5.57291 3.87238 5.57291 5.04464C5.57291 6.21691 6.61513 7.17474 7.90624 7.17474C9.19735 7.17474 10.2396 6.21691 10.2396 5.04464C10.2396 3.87238 9.19735 2.91455 7.90624 2.91455Z" fill="#F87060"/>
</svg>
