<svg width="13" height="10" viewBox="0 0 13 10" fill="none" xmlns="http://www.w3.org/2000/svg">
<path d="M6.43292 5.0273L1.86442 1.46507L1.49664 1.17805L1.86576 1.46641V8.45674H11.9229V1.46641L7.3517 5.0273C7.22032 5.12966 7.05868 5.18522 6.89231 5.18522C6.72594 5.18522 6.5643 5.12966 6.43292 5.0273Z" fill="#FDD5D0"/>
<path d="M12.4777 0.000488281H1.33482C1.09777 0.000488281 0.90625 0.192292 0.90625 0.429698V9.0139C0.90625 9.25131 1.09777 9.44311 1.33482 9.44311H12.4777C12.7147 9.44311 12.9062 9.25131 12.9062 9.0139V0.429698C12.9062 0.192292 12.7147 0.000488281 12.4777 0.000488281ZM11.2121 0.967552L6.90625 4.31942L2.60045 0.967552H11.2121ZM11.942 1.48663V8.47739H1.87054V1.48663L1.50089 1.19825L1.8692 1.48529L6.4442 5.04773C6.57577 5.1501 6.73763 5.20567 6.90424 5.20567C7.07085 5.20567 7.23272 5.1501 7.36429 5.04773L11.942 1.48663L12.3116 1.19825L11.7853 0.520906H11.7866L12.3129 1.19825L11.942 1.48663Z" fill="#F87060"/>
</svg>
