<svg width="17" height="16" viewBox="0 0 17 16" fill="none" xmlns="http://www.w3.org/2000/svg">
<path opacity="0.3" d="M6.23956 3.33385H11.5729V5.33385H6.23956V3.33385Z" fill="#F87060"/>
<path d="M12.9062 8.33382C13.2744 8.33382 13.5729 8.03534 13.5729 7.66715C13.5729 7.29897 13.2744 7.00049 12.9062 7.00049C12.538 7.00049 12.2396 7.29897 12.2396 7.66715C12.2396 8.03534 12.538 8.33382 12.9062 8.33382Z" fill="#F87060"/>
<path d="M13.5729 5.33382H12.9062V2.00049H4.90623V5.33382H4.23956C3.1329 5.33382 2.23956 6.22716 2.23956 7.33382V11.3338H4.90623V14.0005H12.9062V11.3338H15.5729V7.33382C15.5729 6.22716 14.6796 5.33382 13.5729 5.33382ZM6.23956 3.33382H11.5729V5.33382H6.23956V3.33382ZM11.5729 12.6672H6.23956V10.0005H11.5729V12.6672ZM14.2396 10.0005H12.9062V8.66716H4.90623V10.0005H3.5729V7.33382C3.5729 6.96715 3.8729 6.66716 4.23956 6.66716H13.5729C13.9396 6.66716 14.2396 6.96715 14.2396 7.33382V10.0005Z" fill="#F87060"/>
<path opacity="0.3" d="M4.90627 8.66713H12.9063V10.0005H14.2396V7.3338C14.2396 6.96713 13.9396 6.66713 13.5729 6.66713H4.2396C3.87294 6.66713 3.57294 6.96713 3.57294 7.3338V10.0005H4.90627V8.66713ZM12.9063 7.00046C13.2729 7.00046 13.5729 7.30046 13.5729 7.66713C13.5729 8.0338 13.2729 8.3338 12.9063 8.3338C12.5396 8.3338 12.2396 8.0338 12.2396 7.66713C12.2396 7.30046 12.5396 7.00046 12.9063 7.00046Z" fill="#F87060"/>
</svg>
